<svg xmlns="http://www.w3.org/2000/svg" xmlns:xlink="http://www.w3.org/1999/xlink" id="https:_www.flaticon.com_free-icon_layers_149298" width="57.826" height="56.087" data-name="https://www.flaticon.com/free-icon/layers_149298" viewBox="0 0 57.826 56.087"><defs><linearGradient id="linear-gradient" x1=".5" x2=".5" y2="1" gradientUnits="objectBoundingBox"><stop offset="0" stop-color="#615cfd"/><stop offset="1" stop-color="#d465ef"/></linearGradient></defs><ellipse id="Ellipse_5" cx="1.052" cy="1.052" fill="url(#linear-gradient)" data-name="Ellipse 5" rx="1.052" ry="1.052" transform="translate(46.322 25.412)"/><ellipse id="Ellipse_6" cx="1.052" cy="1.052" fill="url(#linear-gradient)" data-name="Ellipse 6" rx="1.052" ry="1.052" transform="translate(8.44 25.412)"/><ellipse id="Ellipse_7" cx="1.052" cy="1.052" fill="url(#linear-gradient)" data-name="Ellipse 7" rx="1.052" ry="1.052" transform="translate(11.597 28.569)"/><ellipse id="Ellipse_8" cx="1.052" cy="1.052" fill="url(#linear-gradient)" data-name="Ellipse 8" rx="1.052" ry="1.052" transform="translate(17.911 28.569)"/><ellipse id="Ellipse_9" cx="1.052" cy="1.052" fill="url(#linear-gradient)" data-name="Ellipse 9" rx="1.052" ry="1.052" transform="translate(14.754 31.726)"/><ellipse id="Ellipse_10" cx="1.052" cy="1.052" fill="url(#linear-gradient)" data-name="Ellipse 10" rx="1.052" ry="1.052" transform="translate(21.067 31.726)"/><ellipse id="Ellipse_11" cx="1.052" cy="1.052" fill="url(#linear-gradient)" data-name="Ellipse 11" rx="1.052" ry="1.052" transform="translate(24.224 34.883)"/><ellipse id="Ellipse_12" cx="1.052" cy="1.052" fill="url(#linear-gradient)" data-name="Ellipse 12" rx="1.052" ry="1.052" transform="translate(30.538 34.883)"/><ellipse id="Ellipse_13" cx="1.052" cy="1.052" fill="url(#linear-gradient)" data-name="Ellipse 13" rx="1.052" ry="1.052" transform="translate(33.695 31.726)"/><ellipse id="Ellipse_14" cx="1.052" cy="1.052" fill="url(#linear-gradient)" data-name="Ellipse 14" rx="1.052" ry="1.052" transform="translate(27.381 38.039)"/><ellipse id="Ellipse_15" cx="1.052" cy="1.052" fill="url(#linear-gradient)" data-name="Ellipse 15" rx="1.052" ry="1.052" transform="translate(36.851 28.569)"/><ellipse id="Ellipse_16" cx="1.052" cy="1.052" fill="url(#linear-gradient)" data-name="Ellipse 16" rx="1.052" ry="1.052" transform="translate(43.165 28.569)"/><ellipse id="Ellipse_17" cx="1.052" cy="1.052" fill="url(#linear-gradient)" data-name="Ellipse 17" rx="1.052" ry="1.052" transform="translate(40.008 31.726)"/><path id="Path_2747" fill="url(#linear-gradient)" d="M47.94,34.467l9.885-5.648L47.665,23.05l10.161-5.805L28.913.826,0,17.245,10.161,23.05,0,28.819l10.161,5.805L0,40.394,28.913,56.913,57.826,40.394l-10.161-5.77.075-.043A.994.994,0,0,0,47.94,34.467ZM28.913,3.245l24.661,14-8.036,4.592h0l-16.624,9.5L4.252,17.25Zm-17.2,21.344a1.038,1.038,0,0,0,1.667.3l2.38,1.36a1.048,1.048,0,1,0,1.1,1.043,1.025,1.025,0,0,0-.139-.494l10.87,6.21a1.024,1.024,0,0,0-.208.6,1.052,1.052,0,0,0,2.1,0,.908.908,0,0,0-.031-.15L40.032,27.41a1.04,1.04,0,0,0,1.028.931,1.053,1.053,0,0,0,1.052-1.052,1.03,1.03,0,0,0-.427-.824L44,25.142a.983.983,0,0,0,.215.043,1.041,1.041,0,0,0,.987-.73l.337-.193,8.033,4.562-2.087,1.192a1.049,1.049,0,0,0-2.008.43,1.025,1.025,0,0,0,.209.6l-4.151,2.372h0l-6.722,3.841a1.024,1.024,0,0,0,.141-.5,1.052,1.052,0,1,0-1.1,1.043l-2.381,1.361a1.049,1.049,0,0,0-1.783.753,1,1,0,0,0,.048.238l-4.83,2.759L23.109,39.6a1.041,1.041,0,0,0-.988-.732.991.991,0,0,0-.217.044l-2.316-1.323a1.033,1.033,0,0,0,.428-.825,1.053,1.053,0,0,0-1.052-1.052,1.041,1.041,0,0,0-1.028.933L7.356,30.6a.948.948,0,0,0-1.022-1.2,1.03,1.03,0,0,0-.653.247l-1.43-.817ZM53.573,40.4,28.912,54.489,4.252,40.4l8.032-4.562,16.629,9.5,16.628-9.5Z" data-name="Path 2747" transform="translate(0 -0.826)"/></svg>